<svg width="243" height="39" viewBox="0 0 243 39" fill="none" xmlns="http://www.w3.org/2000/svg">
<path d="M19.5 0L23.878 13.4742H38.0456L26.5838 21.8017L30.9618 35.2758L19.5 26.9483L8.03819 35.2758L12.4162 21.8017L0.954397 13.4742H15.122L19.5 0Z" fill="#D9D9D9"/>
<path d="M70.5 0L74.878 13.4742H89.0456L77.5838 21.8017L81.9618 35.2758L70.5 26.9483L59.0382 35.2758L63.4162 21.8017L51.9544 13.4742H66.122L70.5 0Z" fill="#D9D9D9"/>
<path d="M121.5 0L125.878 13.4742H140.046L128.584 21.8017L132.962 35.2758L121.5 26.9483L110.038 35.2758L114.416 21.8017L102.954 13.4742H117.122L121.5 0Z" fill="#D9D9D9"/>
<path d="M172.5 0L176.878 13.4742H191.046L179.584 21.8017L183.962 35.2758L172.5 26.9483L161.038 35.2758L165.416 21.8017L153.954 13.4742H168.122L172.5 0Z" fill="#D9D9D9"/>
<path d="M223.5 0L227.878 13.4742H242.046L230.584 21.8017L234.962 35.2758L223.5 26.9483L212.038 35.2758L216.416 21.8017L204.954 13.4742H219.122L223.5 0Z" fill="#D9D9D9"/>
</svg>
