<svg width="133" height="48" viewBox="0 0 133 48" fill="none" xmlns="http://www.w3.org/2000/svg">
<rect x="19.5" y="1.5" width="88" height="46" fill="#813772" stroke="black"/>
<path d="M95.7713 41H92.4759L97.4972 26.4545H101.46L106.474 41H103.179L99.5355 29.7784H99.4219L95.7713 41ZM95.5653 35.2827H103.349V37.6832H95.5653V35.2827ZM108.168 45.0909V30.0909H111.151V31.9233H111.286C111.419 31.6297 111.611 31.3314 111.862 31.0284C112.117 30.7206 112.449 30.465 112.856 30.2614C113.268 30.053 113.779 29.9489 114.39 29.9489C115.185 29.9489 115.919 30.1572 116.592 30.5739C117.264 30.9858 117.801 31.6084 118.204 32.4418C118.606 33.2704 118.808 34.3097 118.808 35.5597C118.808 36.7765 118.611 37.804 118.218 38.642C117.83 39.4754 117.299 40.1075 116.627 40.5384C115.96 40.9645 115.211 41.1776 114.383 41.1776C113.796 41.1776 113.296 41.0805 112.884 40.8864C112.477 40.6922 112.143 40.4484 111.883 40.1548C111.622 39.8565 111.424 39.5559 111.286 39.2528H111.194V45.0909H108.168ZM111.13 35.5455C111.13 36.1941 111.22 36.7599 111.4 37.2429C111.58 37.7259 111.84 38.1023 112.181 38.3722C112.522 38.6373 112.936 38.7699 113.424 38.7699C113.916 38.7699 114.333 38.6349 114.674 38.3651C115.015 38.0904 115.273 37.7116 115.448 37.2287C115.628 36.741 115.718 36.1799 115.718 35.5455C115.718 34.9157 115.63 34.3617 115.455 33.8835C115.28 33.4053 115.022 33.0312 114.681 32.7614C114.34 32.4915 113.921 32.3565 113.424 32.3565C112.932 32.3565 112.515 32.4867 112.174 32.7472C111.838 33.0076 111.58 33.3769 111.4 33.8551C111.22 34.3333 111.13 34.8968 111.13 35.5455ZM120.825 45.0909V30.0909H123.808V31.9233H123.942C124.075 31.6297 124.267 31.3314 124.518 31.0284C124.773 30.7206 125.105 30.465 125.512 30.2614C125.924 30.053 126.435 29.9489 127.046 29.9489C127.842 29.9489 128.576 30.1572 129.248 30.5739C129.92 30.9858 130.458 31.6084 130.86 32.4418C131.263 33.2704 131.464 34.3097 131.464 35.5597C131.464 36.7765 131.267 37.804 130.874 38.642C130.486 39.4754 129.956 40.1075 129.283 40.5384C128.616 40.9645 127.868 41.1776 127.039 41.1776C126.452 41.1776 125.952 41.0805 125.54 40.8864C125.133 40.6922 124.799 40.4484 124.539 40.1548C124.279 39.8565 124.08 39.5559 123.942 39.2528H123.85V45.0909H120.825ZM123.786 35.5455C123.786 36.1941 123.876 36.7599 124.056 37.2429C124.236 37.7259 124.496 38.1023 124.837 38.3722C125.178 38.6373 125.593 38.7699 126.08 38.7699C126.573 38.7699 126.989 38.6349 127.33 38.3651C127.671 38.0904 127.929 37.7116 128.104 37.2287C128.284 36.741 128.374 36.1799 128.374 35.5455C128.374 34.9157 128.287 34.3617 128.112 33.8835C127.936 33.4053 127.678 33.0312 127.337 32.7614C126.996 32.4915 126.577 32.3565 126.08 32.3565C125.588 32.3565 125.171 32.4867 124.83 32.7472C124.494 33.0076 124.236 33.3769 124.056 33.8551C123.876 34.3333 123.786 34.8968 123.786 35.5455Z" fill="white"/>
<path d="M1.2642 19V4.45455H7.00284C8.10133 4.45455 9.03883 4.65104 9.81534 5.04403C10.5966 5.43229 11.1908 5.9839 11.598 6.69886C12.0099 7.40909 12.2159 8.24479 12.2159 9.20597C12.2159 10.1719 12.0076 11.0028 11.5909 11.6989C11.1742 12.3902 10.5705 12.9205 9.77983 13.2898C8.99384 13.6591 8.04214 13.8438 6.92472 13.8438H3.08239V11.3722H6.42756C7.01468 11.3722 7.50237 11.2917 7.89062 11.1307C8.27888 10.9697 8.56771 10.7282 8.7571 10.4062C8.95123 10.0843 9.0483 9.68419 9.0483 9.20597C9.0483 8.72301 8.95123 8.31581 8.7571 7.98438C8.56771 7.65294 8.27652 7.40199 7.88352 7.23153C7.49527 7.05634 7.00521 6.96875 6.41335 6.96875H4.33949V19H1.2642ZM9.11932 12.3807L12.7344 19H9.33949L5.80256 12.3807H9.11932ZM19.1282 19.2131C18.006 19.2131 17.0401 18.9858 16.2305 18.5312C15.4255 18.072 14.8053 17.4233 14.3697 16.5852C13.9341 15.7424 13.7163 14.7457 13.7163 13.5952C13.7163 12.473 13.9341 11.4882 14.3697 10.6406C14.8053 9.79309 15.4184 9.13258 16.2092 8.65909C17.0046 8.18561 17.9374 7.94886 19.0075 7.94886C19.7272 7.94886 20.3971 8.06487 21.0174 8.29688C21.6424 8.52415 22.1869 8.86742 22.6509 9.3267C23.1197 9.78598 23.4843 10.3636 23.7447 11.0597C24.0051 11.7509 24.1353 12.5606 24.1353 13.4886V14.3196H14.9237V12.4446H21.2873C21.2873 12.009 21.1926 11.6231 21.0032 11.2869C20.8138 10.9508 20.551 10.688 20.2148 10.4986C19.8834 10.3045 19.4975 10.2074 19.0572 10.2074C18.5979 10.2074 18.1907 10.3139 17.8356 10.527C17.4852 10.7353 17.2106 11.017 17.0117 11.3722C16.8129 11.7225 16.7111 12.1132 16.7063 12.544V14.3267C16.7063 14.8665 16.8058 15.3329 17.0046 15.7259C17.2082 16.1188 17.4947 16.4219 17.864 16.6349C18.2333 16.848 18.6713 16.9545 19.1779 16.9545C19.5141 16.9545 19.8219 16.9072 20.1012 16.8125C20.3806 16.7178 20.6197 16.5758 20.8185 16.3864C21.0174 16.197 21.1689 15.965 21.2731 15.6903L24.0714 15.875C23.9293 16.5473 23.6381 17.1345 23.1978 17.6364C22.7622 18.1335 22.1987 18.5218 21.5075 18.8011C20.8209 19.0758 20.0278 19.2131 19.1282 19.2131ZM29.1353 12.6932V19H26.1097V8.09091H28.9933V10.0156H29.1211C29.3626 9.38116 29.7674 8.87926 30.3356 8.50994C30.9038 8.13589 31.5927 7.94886 32.4023 7.94886C33.1599 7.94886 33.8204 8.11458 34.3839 8.44602C34.9473 8.77746 35.3853 9.25095 35.6978 9.86648C36.0103 10.4773 36.1665 11.2064 36.1665 12.054V19H33.141V12.5938C33.1457 11.9261 32.9753 11.4053 32.6296 11.0312C32.284 10.6525 31.8081 10.4631 31.2021 10.4631C30.7949 10.4631 30.435 10.5507 30.1225 10.7259C29.8147 10.901 29.5733 11.1567 29.3981 11.4929C29.2276 11.8243 29.14 12.2244 29.1353 12.6932ZM44.3537 8.09091V10.3636H37.7841V8.09091H44.3537ZM39.2756 5.47727H42.3011V15.6477C42.3011 15.9271 42.3438 16.1449 42.429 16.3011C42.5142 16.4527 42.6326 16.5592 42.7841 16.6207C42.9403 16.6823 43.1203 16.7131 43.3239 16.7131C43.4659 16.7131 43.608 16.7012 43.75 16.6776C43.892 16.6491 44.0009 16.6278 44.0767 16.6136L44.5526 18.8651C44.401 18.9124 44.188 18.9669 43.9134 19.0284C43.6387 19.0947 43.3049 19.1349 42.9119 19.1491C42.1828 19.1776 41.5436 19.0805 40.9943 18.858C40.4498 18.6354 40.026 18.2898 39.723 17.821C39.42 17.3523 39.2708 16.7604 39.2756 16.0455V5.47727ZM49.4354 19.206C48.7393 19.206 48.1191 19.0852 47.5746 18.8438C47.0301 18.5975 46.5992 18.2353 46.282 17.7571C45.9695 17.2741 45.8132 16.6728 45.8132 15.9531C45.8132 15.3471 45.9245 14.8381 46.147 14.4261C46.3696 14.0142 46.6726 13.6828 47.0561 13.4318C47.4396 13.1809 47.8752 12.9915 48.3629 12.8636C48.8554 12.7358 49.3714 12.6458 49.9112 12.5938C50.5457 12.5275 51.0571 12.4659 51.4453 12.4091C51.8336 12.3475 52.1153 12.2576 52.2905 12.1392C52.4657 12.0208 52.5533 11.8456 52.5533 11.6136V11.571C52.5533 11.1212 52.4112 10.7732 52.1271 10.527C51.8478 10.2808 51.45 10.1577 50.9339 10.1577C50.3894 10.1577 49.9562 10.2784 49.6342 10.5199C49.3123 10.7566 49.0992 11.0549 48.995 11.4148L46.1967 11.1875C46.3388 10.5246 46.6181 9.9517 47.0348 9.46875C47.4515 8.98106 47.9889 8.60701 48.647 8.34659C49.3099 8.08144 50.0769 7.94886 50.9482 7.94886C51.5542 7.94886 52.1342 8.01989 52.6882 8.16193C53.2469 8.30398 53.7417 8.52415 54.1726 8.82244C54.6082 9.12074 54.9515 9.50426 55.2024 9.97301C55.4534 10.437 55.5788 10.9934 55.5788 11.642V19H52.7095V17.4872H52.6243C52.4491 17.8281 52.2147 18.1288 51.9212 18.3892C51.6276 18.6449 51.2749 18.8461 50.8629 18.9929C50.451 19.1349 49.9751 19.206 49.4354 19.206ZM50.3018 17.1179C50.7469 17.1179 51.1399 17.0303 51.4808 16.8551C51.8217 16.6752 52.0893 16.4337 52.2834 16.1307C52.4775 15.8277 52.5746 15.4844 52.5746 15.1009V13.9432C52.4799 14.0047 52.3497 14.0616 52.1839 14.1136C52.023 14.161 51.8407 14.206 51.6371 14.2486C51.4335 14.2865 51.2299 14.322 51.0263 14.3551C50.8227 14.3835 50.638 14.4096 50.4723 14.4332C50.1172 14.4853 49.8071 14.5682 49.5419 14.6818C49.2768 14.7955 49.0708 14.9493 48.924 15.1435C48.7772 15.3329 48.7038 15.5696 48.7038 15.8537C48.7038 16.2656 48.853 16.5805 49.1513 16.7983C49.4543 17.0114 49.8378 17.1179 50.3018 17.1179ZM60.9517 4.45455V19H57.9261V4.45455H60.9517Z" fill="white"/>
</svg>
